<?xml version="1.0" encoding="UTF-8"?>
<svg id="Capa_1" data-name="Capa 1" xmlns="http://www.w3.org/2000/svg" viewBox="0 0 162.59 94.22">
  <defs>
    <style>
      .cls-1 {
        fill: #fff;
        stroke-width: 0px;
      }
    </style>
  </defs>
  <path class="cls-1" d="M81.27,12.12h0c.12,0,.23,0,.35,0,.12,0,.23,0,.35,0h0c8.73-.04,17.03-3.52,22.54-11.51-7.45,5.25-14.8,7.79-22.89,7.7-8.09.09-16.24-2.45-23.69-7.7,5.51,7.99,14.61,11.46,23.34,11.5Z"/>
  <polygon class="cls-1" points="114.21 47.13 162.59 .04 129.3 0 98.94 32.8 114.21 47.13"/>
  <polygon class="cls-1" points="11.42 93.91 42.71 93.82 81.57 55.55 118.36 94.22 151.06 93.91 81.47 22.37 11.42 93.91"/>
  <polygon class="cls-1" points="63.45 32.59 33.14 .23 0 0 48.69 47.33 63.45 32.59"/>
</svg>